/* XPM */
static char *graphic[] = {
/* width height num_colors chars_per_pixel */
"16 16 207 2", 
/* colors */
"   c None",
".  c #FCE886",
"X  c #8A6E38",
"o  c #52341E",
"O  c #DAC693",
"+  c #847B58",
"@  c None",
"#  c #8E6F47",
"$  c #788495",
"%  c #BAA467",
"&  c #AB8C67",
"*  c #B37D48",
"=  c None",
"-  c #A17236",
";  c None",
":  c #6D7079",
">  c #FFFACD",
",  c #72767B",
"<  c #CDBE8D",
"1  c #876E38",
"2  c #785E2F",
"3  c #CBA74A",
"4  c #E1D5A7",
"5  c #D6CDA5",
"6  c #826D59",
"7  c #685C3E",
"8  c #6A7180",
"9  c None",
"0  c #929FBB",
"q  c #7A7A84",
"w  c #E3CD8F",
"e  c #4E5A6B",
"r  c #A5AAB1",
"t  c #C3A575",
"y  c None",
"u  c #8590A3",
"i  c #616F81",
"p  c #AC9865",
"a  c #CCAE4C",
"s  c #89705B",
"d  c #AC9462",
"f  c #BFC3D4",
"g  c #B59F47",
"h  c #797F55",
"j  c #93A3BB",
"k  c #744F22",
"l  c #DDE0E7",
"z  c #868064",
"x  c #81818A",
"c  c #485A76",
"v  c #C9C1B5",
"b  c #D3B575",
"n  c #63543F",
"m  c #A48250",
"M  c #E7D399",
"N  c #6B675E",
"B  c #F7F3DF",
"V  c #B4935B",
"C  c #AC9262",
"Z  c #6A6657",
"A  c #D5BB8C",
"S  c #6A572C",
"D  c None",
"F  c #BDC4D6",
"G  c None",
"H  c #6C4E38",
"J  c #CFC07A",
"K  c #A79E88",
"L  c #533823",
"P  c #A4874A",
"I  c #CECFD7",
"U  c #89713C",
"Y  c #8C7345",
"T  c #765C3E",
"R  c #8B6527",
"E  c #8C7257",
"W  c #9D7B37",
"Q  c #7A715F",
"!  c None",
"~  c #ECD599",
"^  c #988650",
"/  c #9B8349",
"(  c #B09B62",
")  c #BD975F",
"_  c #96733F",
"`  c #656242",
"'  c #797242",
"]  c #61381C",
"[  c #8A8F98",
"{  c #C1C9D3",
"}  c #9A7C55",
"|  c #F6DEA7",
" . c #EBEFE5",
".. c None",
"X. c #BBA66C",
"o. c None",
"O. c #9C916A",
"+. c #697483",
"@. c #CEBA7C",
"#. c #747F8C",
"$. c #978579",
"%. c None",
"&. c #927A50",
"*. c #807D79",
"=. c None",
"-. c #DABE50",
";. c #9199AB",
":. c #FFFFE6",
">. c None",
",. c #AE8853",
"<. c #62573F",
"1. c #B6863E",
"2. c #78747A",
"3. c #9A8879",
"4. c #6D6E6A",
"5. c #8E7E5D",
"6. c #EBD899",
"7. c #A39A73",
"8. c #BE8C48",
"9. c #495567",
"0. c #C3A952",
"q. c #FFFFFF",
"w. c #816954",
"e. c #9D917D",
"r. c None",
"t. c #AE936A",
"y. c #EED688",
"u. c #B3AEA1",
"i. c None",
"p. c #A57350",
"a. c None",
"s. c None",
"d. c None",
"f. c #ACA79E",
"g. c #C6AF77",
"h. c #D9C985",
"j. c #C2B8A0",
"k. c #8F7746",
"l. c #554428",
"z. c #CF9A41",
"x. c #BBAF84",
"c. c #3E445B",
"v. c #8B7341",
"b. c #DEBC83",
"n. c #866F51",
"m. c #7F6231",
"M. c #B7C3DA",
"N. c #FFFFD3",
"B. c #856B3C",
"V. c #B19855",
"C. c None",
"Z. c #A9AAA7",
"A. c #B0B4B9",
"S. c #C8BD92",
"D. c #7E531F",
"F. c #928B63",
"G. c #7D8086",
"H. c #58332C",
"J. c #DFD696",
"K. c None",
"L. c #AE8F46",
"P. c #745540",
"I. c #80633B",
"U. c #BFC5CB",
"Y. c #BB9C3D",
"T. c #9E937F",
"R. c #C2A171",
"E. c #795117",
"W. c #DDDDCC",
"Q. c #9B813A",
"!. c #8995AC",
"~. c #956744",
"^. c #816242",
"/. c #9D7D5B",
"(. c #575E65",
"). c #B09752",
"_. c #7387A2",
"`. c #A58846",
"'. c None",
"]. c #9BA5B8",
"[. c #BDC1D5",
"{. c #F3E3A3",
"}. c #B99D6E",
"|. c #C49E62",
" X c #765A25",
".X c #655D55",
"XX c #48515A",
"oX c None",
"OX c #C8A352",
"+X c #AE9064",
"@X c #C6C099",
"#X c #9399AB",
"$X c #C1B060",
"%X c #6B656B",
"&X c #A0A5B6",
"*X c #8D6F4A",
"=X c #4F331F",
"-X c #A4B4D1",
";X c #B48A40",
":X c #9D7154",
">X c #777165",
",X c #757343",
"<X c #705B26",
"1X c None",
"2X c #DFCC84",
"3X c #E5CB7F",
"4X c #564A46",
/* pixels */
"          s.=.J 4 B @           ",
"        9 7.A.[.f I l y r.      ",
"    ; 1 u 0 u.S.5 W.{ M.A =     ",
"    S _.G.`.Y.-.. N.> v -XR.d.  ",
"  i.#., R X V.0.J.q.| z.f.;.|.  ",
"G z j U m.# ).g @X .b ;X1.#X3.%.",
"<Xr Z.Q.^ Y 2 $X:.b.8.,.- $.x & ",
"k.].K P d ( &.p O * p.:X~.s q E ",
"v.$ T.V }.t +Xg.C <.+ n.^.6 2.w.",
" X(.*.) t./.I.h.~ H ` h ' >X%X5.",
"D n i m *XT / 6.{.} H.7 ,X: Z a.",
"  ..e 4.D.B.% M w X.P.] .XXXF.r.",
"  oXL c N W 3 y.3XOX_ 4Xc.l.'.  ",
"    1Xo +.!.j.< x.e.8 9.=XK.    ",
"      C.E.O.U.F &X[ Q k >.      ",
"          o.a 2X@.L.!           "
};
