/* XPM */
static char *graphic[] = {
/* width height num_colors chars_per_pixel */
"32 32 734 2", 
/* colors */
"   c None",
".  c #FCFAFA",
"X  c #E6E7D8",
"o  c #818DA6",
"O  c #7C6B46",
"+  c #B79961",
"@  c #D7BD78",
"#  c #927951",
"$  c #9F8A3D",
"%  c None",
"&  c #B69C46",
"*  c #5F6876",
"=  c #837A68",
"-  c None",
";  c #A48D48",
":  c #665B51",
">  c #73714D",
",  c #68798F",
"<  c #6D533C",
"1  c #6E6451",
"2  c #B59C63",
"3  c #B6B8BC",
"4  c #B0913A",
"5  c #A39151",
"6  c #AF9465",
"7  c #8C724C",
"8  c #9F9C93",
"9  c #AA935C",
"0  c #B5B2A5",
"q  c #A58D43",
"w  c #61615A",
"e  c #664A37",
"r  c #4A5461",
"t  c #A49D85",
"y  c #F6F6F9",
"u  c #727585",
"i  c #D1B765",
"p  c #684B39",
"a  c #A4A6B0",
"s  c #D4D1C9",
"d  c #B69659",
"f  c #A1AEC7",
"g  c #9C8757",
"h  c #BA9740",
"j  c #F4EBC8",
"k  c #9BA1B9",
"l  c #6D513B",
"z  c None",
"x  c #9C8449",
"c  c #B18358",
"v  c #6F6F79",
"b  c #48566E",
"n  c #5E5935",
"m  c None",
"M  c #78754E",
"N  c #606670",
"B  c #939DB2",
"V  c #76764E",
"C  c #545F70",
"Z  c None",
"A  c None",
"S  c #97824B",
"D  c #E8D69D",
"F  c #AA935D",
"G  c #7E603F",
"H  c #828584",
"J  c #BDB696",
"K  c #ECD77D",
"L  c #987A3F",
"P  c #9C774A",
"I  c #B4A056",
"U  c #9F734E",
"Y  c #B5976C",
"T  c #7F7E54",
"R  c #C5AF71",
"E  c #4E5156",
"W  c #9BA4B1",
"Q  c #C19357",
"!  c #B89C6C",
"~  c #715A3A",
"^  c #866323",
"/  c #74703D",
"(  c #A6A08A",
")  c #B4B7BC",
"_  c #D8C161",
"`  c #897243",
"'  c #C0AD73",
"]  c #B8BCCE",
"[  c #BFB8A5",
"{  c #C2B261",
"}  c #5E3D1E",
"|  c #FCF5CE",
" . c #886D50",
".. c #D2BD7E",
"X. c #E2B674",
"o. c #C09C59",
"O. c #B19569",
"+. c #7A704C",
"@. c #9D8059",
"#. c #A4ACB7",
"$. c #876C49",
"%. c #E3CF90",
"&. c #B18E40",
"*. c #D3D3D2",
"=. c #8E8E87",
"-. c #927242",
";. c #666977",
":. c #817672",
">. c #E0CC92",
",. c #D3BA59",
"<. c #B48645",
"1. c #84663D",
"2. c #DCC88D",
"3. c #9E744A",
"4. c #8B8786",
"5. c #674121",
"6. c #997B48",
"7. c #927551",
"8. c #7D7B52",
"9. c #D0CFC8",
"0. c #8B7251",
"q. c #9C977F",
"w. c #DEC681",
"e. c #9399B1",
"r. c #C3A335",
"t. c #BBA358",
"y. c #AFB2B1",
"u. c #B89A6C",
"i. c #F8E7AA",
"p. c #757578",
"a. c #AF9961",
"s. c #54565F",
"d. c #A58231",
"f. c None",
"g. c #816743",
"h. c #ECD29E",
"j. c #838FA1",
"k. c #AC8050",
"l. c #BA9B6E",
"z. c #CCBA7A",
"x. c #B4975C",
"c. c #516078",
"v. c #836845",
"b. c #FFFFF7",
"n. c #A48A55",
"m. c #BFAA6C",
"M. c #676973",
"N. c #FEFDCC",
"B. c #798493",
"V. c #987252",
"C. c #DBDDE0",
"Z. c #52535C",
"A. c #9599A7",
"S. c #CFB370",
"D. c #A37917",
"F. c #86723E",
"G. c #A57C44",
"H. c #907142",
"J. c #9EA5B0",
"K. c #9A8149",
"L. c #A77A4F",
"P. c #EDDCA2",
"I. c #444247",
"U. c #B89A6D",
"Y. c #977B54",
"T. c #A4ABC4",
"R. c #7C7957",
"E. c #7E6A4B",
"W. c #8B6A34",
"Q. c #CCA74B",
"!. c #ACB4C4",
"~. c #BA9B6F",
"^. c #706664",
"/. c #B39C5B",
"(. c #897A64",
"). c #A7904B",
"_. c #84888B",
"`. c #A1723A",
"'. c #926D4C",
"]. c #DAC46C",
"[. c #AA8E51",
"{. c None",
"}. c #F0E298",
"|. c None",
" X c #8A7135",
".X c #D4B67C",
"XX c #B7A061",
"oX c #9A9FAA",
"OX c #AFA08C",
"+X c #757F9A",
"@X c #90763C",
"#X c #BDA754",
"$X c #BCC3CE",
"%X c #D8B95E",
"&X c #B39166",
"*X c #E8D797",
"=X c #E3D397",
"-X c #E0E1E2",
";X c #DBDDE2",
":X c #727C85",
">X c #765B30",
",X c #B2A990",
"<X c #84654B",
"1X c #6B717E",
"2X c None",
"3X c None",
"4X c #FFFFE2",
"5X c #757379",
"6X c #C8B072",
"7X c #EEE2A9",
"8X c #665B40",
"9X c #70523D",
"0X c #DBC98B",
"qX c #8E98AB",
"wX c #B9C4D4",
"eX c #654936",
"rX c #898F9B",
"tX c None",
"yX c #AE9566",
"uX c #455269",
"iX c #827645",
"pX c #858994",
"aX c #A9996D",
"sX c #D09245",
"dX c #776C5D",
"fX c #D0A763",
"gX c #BBC4E1",
"hX c #A4A69F",
"jX c #CBB07A",
"kX c #7D6341",
"lX c #E3D17F",
"zX c #767144",
"xX c #795D3A",
"cX c #AB9251",
"vX c #98804A",
"bX c #926B35",
"nX c #E1CE93",
"mX c #545C68",
"MX c #694737",
"NX c #623720",
"BX c #C3C4CE",
"VX c #9C8853",
"CX c #A9A18C",
"ZX c #606A7A",
"AX c #B78C52",
"SX c #8E7150",
"DX c #BA9959",
"FX c #C6924D",
"GX c #B7B5B0",
"HX c #909BB0",
"JX c #6D7080",
"KX c #927126",
"LX c #697790",
"PX c None",
"IX c #FFFFE4",
"UX c #80581D",
"YX c #9B7A51",
"TX c #8C8D8B",
"RX c #5C6272",
"EX c None",
"WX c #BCA24B",
"QX c #705026",
"!X c #464952",
"~X c #D5DADF",
"^X c #B49D66",
"/X c #9B7353",
"(X c #787276",
")X c #8D6938",
"_X c #E3C35D",
"`X c #7A7764",
"'X c #51371F",
"]X c #ABB1BF",
"[X c #9FAABF",
"{X c #957F4F",
"}X c #9C8546",
"|X c #AEA78F",
" o c #BDA756",
".o c #DBD8A6",
"Xo c #515B6D",
"oo c #6F420E",
"Oo c #858178",
"+o c #9A8551",
"@o c #906C4E",
"#o c #CAB361",
"$o c #A48C5C",
"%o c #706948",
"&o c #81663C",
"*o c #6E6C61",
"=o c #967945",
"-o c #B09267",
";o c #585851",
":o c #9C804E",
">o c #D3AD72",
",o c #A58960",
"<o c #846A47",
"1o c #C8C6B7",
"2o c #A88E60",
"3o c #7C7B75",
"4o c #ACA68E",
"5o c #AB9360",
"6o c #7E7980",
"7o c #F5DFA2",
"8o c #EAC984",
"9o c #EEDCA2",
"0o c #545867",
"qo c #DACA89",
"wo c #C8C7C4",
"eo c None",
"ro c #BAA459",
"to c #827164",
"yo c #727C89",
"uo c #ADB4C4",
"io c #D4AA5F",
"po c None",
"ao c #FBF0B4",
"so c #FFFFE6",
"do c #85663F",
"fo c None",
"go c #AA8C3D",
"ho c #A0784A",
"jo c #969A9D",
"ko c #866948",
"lo c #6F6228",
"zo c #6D7A8B",
"xo c #EADA9F",
"co c #4D545B",
"vo c #DFDDD1",
"bo c #CDBB88",
"no c #6A4D3A",
"mo c #998A68",
"Mo c None",
"No c #EEE8DC",
"Bo c #896E31",
"Vo c #BD9B65",
"Co c #D0BA83",
"Zo c #8C6821",
"Ao c None",
"So c #987E4C",
"Do c #957C43",
"Fo c #7F601A",
"Go c #796B4A",
"Ho c #785A35",
"Jo c #BB9A4C",
"Ko c #C7A953",
"Lo c #C6C3B5",
"Po c #817A7E",
"Io c #8D6524",
"Uo c #A7A59E",
"Yo c #A88C60",
"To c #6A4B39",
"Ro c #EDDB85",
"Eo c #B29757",
"Wo c #787D8E",
"Qo c #8C684B",
"!o c #856427",
"~o c #767E8E",
"^o c #A99260",
"/o c #AE9660",
"(o c #5A5E65",
")o c #735A39",
"_o c #926D28",
"`o c #E1D099",
"'o c #AD8842",
"]o c #979CB2",
"[o c #886832",
"{o c #703C18",
"}o c #BB8A3F",
"|o c #7E5A2D",
" O c #535D67",
".O c #687289",
"XO c #B19333",
"oO c #A8935B",
"OO c #C1C6DF",
"+O c #92896B",
"@O c #CEAD78",
"#O c #816C44",
"$O c #AB8A4F",
"%O c #D3B97F",
"&O c #B58953",
"*O c #F1D7B3",
"=O c #726B42",
"-O c None",
";O c #E3D38A",
":O c #DDC76D",
">O c #906F4B",
",O c #716744",
"<O c #AD7835",
"1O c #AC9856",
"2O c #788596",
"3O c #99864F",
"4O c #6F6E78",
"5O c #B2A88A",
"6O c #A38D5A",
"7O c #C28F59",
"8O c #B09763",
"9O c #D0C08A",
"0O c #7D8054",
"qO c #59491F",
"wO c #5D3D07",
"eO c #968648",
"rO c None",
"tO c #9C6B4B",
"yO c #475668",
"uO c #BA9359",
"iO c #9F7852",
"pO c #D3D2D0",
"aO c #C6C3B7",
"sO c #BB8938",
"dO c #D5BB77",
"fO c #807A6E",
"gO c None",
"hO c #B8A467",
"jO c #8F7649",
"kO c #624D39",
"lO c #6C5A49",
"zO c #5C5857",
"xO c #D4D2CB",
"cO c #AE9662",
"vO c #CCA566",
"bO c #726E69",
"nO c #758299",
"mO c #C8B572",
"MO c #484549",
"NO c #BB9D5D",
"BO c #8A6B4F",
"VO c #897A6D",
"CO c #D1BE84",
"ZO c #987F44",
"AO c #A6895F",
"SO c #687582",
"DO c #9C7353",
"FO c #B19468",
"GO c #C2B486",
"HO c #6C4621",
"JO c #B4BCD8",
"KO c #AC8A63",
"LO c #CDBD76",
"PO c #C49555",
"IO c #A68E58",
"UO c #8A96AF",
"YO c #B69A6A",
"TO c #EAD8A1",
"RO c #B48557",
"EO c None",
"WO c #CEB273",
"QO c #E1D7C5",
"!O c #DBBB5B",
"~O c #D3B57E",
"^O c #6A5E41",
"/O c #4E5768",
"(O c #96763C",
")O c None",
"_O c None",
"`O c #A8915C",
"'O c #80766C",
"]O c #7C571D",
"[O c #9A7252",
"{O c #663A0D",
"}O c #BA7E3D",
"|O c #565F73",
" + c #B8B3B0",
".+ c #696155",
"X+ c #83785E",
"o+ c #685847",
"O+ c #A58349",
"++ c #969DB0",
"@+ c #8F8379",
"#+ c None",
"$+ c #545760",
"%+ c #667280",
"&+ c #B4A159",
"*+ c #9C834B",
"=+ c #644636",
"-+ c #AB945B",
";+ c #AD9266",
":+ c #D1D4DF",
">+ c #876D34",
",+ c #A3884D",
"<+ c #BABDC6",
"1+ c None",
"2+ c #A79566",
"3+ c #936A43",
"4+ c #8F98AF",
"5+ c #F4E8C1",
"6+ c #8F939F",
"7+ c #907551",
"8+ c #424D5B",
"9+ c #F4EBB8",
"0+ c #FFFFBD",
"q+ c #929DAF",
"w+ c #8F6F27",
"e+ c #93A0B8",
"r+ c #E9D59A",
"t+ c #7B7671",
"y+ c #52565F",
"u+ c #D2D1CC",
"i+ c #9F9F9A",
"p+ c None",
"a+ c #8D6D2C",
"s+ c #C4A85C",
"d+ c #B0934C",
"f+ c #ABB2BC",
"g+ c #683B12",
"h+ c #876A3E",
"j+ c #A08D6E",
"k+ c #997D57",
"l+ c None",
"z+ c None",
"x+ c #C59C64",
"c+ c #DCCEA0",
"v+ c #784F3D",
"b+ c #585C5C",
"n+ c #EFEFEF",
"m+ c #D8C170",
"M+ c #EDDE99",
"N+ c #8D7254",
"B+ c #A68B64",
"V+ c None",
"C+ c #C39F66",
"Z+ c #6D510D",
"A+ c #99734F",
"S+ c #7C653B",
"D+ c #F8E8AD",
"F+ c #D8C669",
"G+ c #72543F",
"H+ c #B5B09D",
"J+ c #886541",
"K+ c #73552F",
"L+ c #C0B47D",
"P+ c #FFFFD6",
"I+ c #563B28",
"U+ c None",
"Y+ c #7B8496",
"T+ c #C1AD66",
"R+ c #D0C386",
"E+ c #5F470B",
"W+ c #484D54",
"Q+ c #AA9261",
"!+ c #AB8853",
"~+ c #EBDAA1",
"^+ c #9A813F",
"/+ c #B4B8C1",
"(+ c #9EA4B1",
")+ c #E0C993",
"_+ c #62361E",
"`+ c #97724E",
"'+ c #A78F63",
"]+ c #F1EFE5",
"[+ c #7B754F",
"{+ c #9C7E55",
"}+ c #635741",
"|+ c #77774F",
" @ c #CAB24F",
".@ c #C4AA77",
"X@ c #8B6D50",
"o@ c None",
"O@ c #AD9655",
"+@ c #957337",
"@@ c #7B87A5",
"#@ c #EBD8A0",
"$@ c #A79D87",
"%@ c #687385",
"&@ c #826E47",
"*@ c #D5BD67",
"=@ c #A97E56",
"-@ c #AA8A5B",
";@ c #425363",
":@ c #785315",
">@ c #989DA9",
",@ c #AF9662",
"<@ c #817250",
"1@ c #9E835B",
"2@ c #C0AC60",
"3@ c #6E6F79",
"4@ c #C7A664",
"5@ c #717989",
"6@ c #C5CAD4",
"7@ c #B99D6D",
"8@ c #F8EBBD",
"9@ c #DBE0E6",
"0@ c #946F51",
"q@ c #957B56",
"w@ c #BA9E5D",
"e@ c #6D431D",
"r@ c #7B838B",
"t@ c #FFFFEF",
"y@ c #C0B78D",
"u@ c #E3E2BD",
"i@ c #8B6D51",
"p@ c #A6AEBF",
"a@ c #B19361",
"s@ c #937651",
"d@ c #6C6C76",
"f@ c #A89256",
"g@ c #F2DCB4",
"h@ c #85887D",
"j@ c #A9904F",
"k@ c #989BA8",
"l@ c #CAAF68",
"z@ c #E8C860",
"x@ c #515C6D",
"c@ c #CACCD3",
"v@ c #87694C",
"b@ c #7C664A",
"n@ c #DFBC84",
"m@ c #827F7A",
"M@ c #FBF6C3",
"N@ c #747683",
"B@ c #B99D6E",
"V@ c #74797A",
"C@ c #AA8535",
"Z@ c #B09367",
"A@ c #D2BE85",
"S@ c #6E6B48",
"D@ c #727C93",
"F@ c #90702E",
"G@ c None",
"H@ c #86682E",
"J@ c #62656C",
"K@ c #AF9A67",
"L@ c #6A4E39",
"P@ c #C6C5C0",
"I@ c #DFBF50",
"U@ c #A1A5B0",
"Y@ c #623F34",
"T@ c #9A8159",
"R@ c #8E7252",
"E@ c #775119",
"W@ c None",
"Q@ c #E7D687",
"!@ c #FAFDF2",
"~@ c #EBE5B9",
"^@ c #EEF1E2",
"/@ c #DDD7B2",
"(@ c #9C8552",
")@ c #AA854D",
"_@ c #748199",
"`@ c #9F8762",
"'@ c #75744E",
"]@ c #797B79",
"[@ c None",
"{@ c None",
"}@ c #9B7B28",
"|@ c #8A7654",
" # c #757A82",
".# c #795E3D",
"X# c #827852",
"o# c #BEBDB6",
"O# c #A2A29D",
"+# c #A49054",
"@# c #AD915F",
"## c #8794AD",
"$# c #AE9468",
"%# c #88672F",
"&# c #BFC4DA",
"*# c #AB9B8A",
"=# c #656F7D",
"-# c #9BA3B8",
";# c #D4D7E3",
":# c #787D52",
"># c #625548",
",# c #D3B461",
"<# c None",
"1# c None",
"2# c None",
"3# c #9B8E83",
"4# c #FEF7C1",
"5# c None",
"6# c #66613D",
"7# c #FFFFDA",
"8# c #B3A058",
"9# c #A1814C",
"0# c #8C764A",
"q# c #DAC383",
"w# c #DFCC93",
"e# c #949DAA",
"r# c #94989A",
"t# c #B27C27",
"y# c #67512A",
"u# c #614635",
"i# c #A98F5C",
"p# c #A19373",
"a# c #7A623C",
"s# c #7B7351",
"d# c #CB9442",
"f# c #8E6F48",
"g# c #7D715C",
"h# c None",
"j# c #B4A053",
"k# c #976D42",
"l# c #AA8F57",
"z# c #7F6D4E",
"x# c #B09369",
"c# c #7B541A",
"v# c #947B47",
"b# c #704E32",
"n# c #A6ACC0",
"m# c #D0BF87",
"M# c #D3BA67",
"N# c #D1BB67",
"B# c #736F79",
"V# c #B49E69",
"C# c #E0E1DB",
"Z# c #8F7949",
"A# c #8B704B",
"S# c #695B40",
"D# c #E5DBBB",
"F# c #755C3B",
"G# c #84776B",
"H# c #B19B6B",
"J# c #FFFFDB",
"K# c #CDC8AB",
"L# c #878B9B",
"P# c #A58F5B",
"I# c #B59B6D",
"U# c None",
"Y# c #693A18",
"T# c #D0CAB4",
"R# c #D2BB62",
"E# c #707C89",
"W# c #86693D",
"Q# c #5A5B62",
"!# c #696C72",
"~# c #C9B15B",
"^# c #DDCB7B",
"/# c #F4E7A4",
"(# c #D8C26B",
")# c #AA8D56",
"_# c #7C6944",
"`# c #8B93A4",
"'# c #65492F",
"]# c #A69466",
"[# c None",
"{# c #767D8D",
/* pixels */
"                                                                ",
"                      gOfo @,.].;O7Xj o@{@                      ",
"                  2#XO#XL+J LowopOxOvo]+n+. tX                  ",
"              A }@).t oXk &#T.OO]o] :+) -XC.Nog@PX              ",
"            1+KX+OqX4+Y+++c@o#1oaOu+;XBXa 3 9@s n@{.            ",
"          f.a+H _@5@W 0 GOT+R#_ K }.9+4XC#;#U@e#~XfXEX          ",
"        |.^ :X%@yor#]#go4 WX~#N#^#M+aoN.P+5+*.uo$XwX}oeo        ",
"      [#:@V@SOE#=.L F@x O@ro#o:ORo/#M@7#| 7o8oQOp@(+6@t#G@      ",
"      wOX+, %+h@[o>XjOK.j@t.*@(#Q@0+J#so8@h.X.d#[ !.HXOXsO      ",
"    3X>+2O* r@H@+@# S+` ,+s+ o8#R+.ob.t@D+>oC+d+C@ +>@[XG.l+    ",
"    Z+q.nOB.moQXF#H.9#n.vXEoq $ j#y@y u@)+~ONOuO}Ox+J.~o3#<.    ",
"  EO X#.j.hX@XF.0#)odo6.cX&+I 2@LOK#X c+@OvOPOAX$O<O*#A.k@P %   ",
"  - aXe+q+5OBoeO5 S So1.-.; { lX4#!@/@.Xo.DXd [.ZO`.KO6+L#N+rO  ",
"  E+,Xf f+2+Dog {X+o3OZ#a#'#}XF+~@^@ioFXQ &Ok.L.U 3.ho4.Woto&X  ",
"  FoUo##y.IO(@P#6O`OF oOVX&@W#& IX*OsX7OROc =@iOA+'.k#@+u :.YX  ",
"  w+joo i+l#$oQ+^o,@8OcO5o/oK@^X9OVotODO[O/XV.0@@oQo3+G#N@Po>O  ",
"  _o_.UOO#)#2oyX6 YO! 7@B@~.I#bo.@_#R.|@ .i@X@BOv@<XJ+VO6o(Xf#  ",
"  Zo3oLXTXa@YoO.FOu.l.U.Y Y.=oz.i.`+8X:#T X#<@z#E.b@g.'OB#^.7   ",
"  ]Og#c. #$#-@x#;+-oZ@AO7.h+XXqo*XjXv+kOV 0O8.[++.GoO t+v : `@  ",
"  po#Ob ZXj+!+B+,o1@@.s@G *+mOP.xo..{+Y@< %o'@|+M zXs#5X4O}+U#  ",
"  5#%#mXx@Oo)@q@k+7+A#ko&o1OA@9o~+COV#G+MXl ^OS@> / `X3@d@,O#+  ",
"    c#1 uX=#T@)X0.$.v.xX+#/.%O=X#@Com.SX=+ToL@S#6#=Op.M.w iX    ",
"    Mo|oyO/O]@bXHo<o.#v#hOx.q#%.r+WOR H#9Xe noeXy#*oJ@;.n p+    ",
"      g+>#;@C fOUXK+kXf@9 w@0XTOD S.2 ' R@p u#5.lO(o$+;olo-O    ",
"      h#{oco8+|O= E@!o-+i#l@2.`ow#dO+ a.'+b#HOo+Q#MOs.qO[@      ",
"        W@NXr W+N m@^+d.&.,#w.nX>.@ 4@O+'oW..+Z.I.y+'Xm         ",
"          Ao_+b+ O1XrX$@6X%X_Xi m+M#Jo@#(.!#0o!XE I+e@          ",
"            U+Y#dXzo.O`#]XP@T#|X4oH+8 pXJXRXXozO} Z             ",
"              <#oo(O( B @@gXJO-#n#e.+XD@{#bO~ {Oz               ",
"                  1#D.Kom#D#9.<+/+GXCXp#:oIo)O                  ",
"                      z+V+r.I@z@!OQ.h _O2X                      ",
"                                                                "
};
